<?xml version="1.0" encoding="iso-8859-1"?>
<!-- Generator: Adobe Illustrator 16.0.0, SVG Export Plug-In . SVG Version: 6.00 Build 0)  -->
<!DOCTYPE svg PUBLIC "-//W3C//DTD SVG 1.1//EN" "http://www.w3.org/Graphics/SVG/1.1/DTD/svg11.dtd">
<svg version="1.1" id="Capa_1" xmlns="http://www.w3.org/2000/svg" xmlns:xlink="http://www.w3.org/1999/xlink" x="0px" y="0px"
	 width="45.877px" height="45.877px" viewBox="0 0 45.877 45.877" style="enable-background:new 0 0 45.877 45.877;"
	 xml:space="preserve">
<g>
	<g>
		<path d="M40.135,18.997C40.135,8.522,31.613,0,21.137,0c-0.4,0-0.797,0.017-1.191,0.041v2.406
			c0.395-0.028,0.789-0.061,1.191-0.061c9.16,0,16.611,7.452,16.611,16.611s-7.451,16.61-16.611,16.61
			c-0.268,0-0.529-0.027-0.795-0.041v0.897v1.509v4.723h-5.898v3.182h13.388v-3.182h-5.104v-4.774
			C32.461,37.109,40.135,28.936,40.135,18.997z"/>
		<g>
			<path d="M24.52,8.352c0.211-1.58,0.367-2.819,0.449-3.485c-1.371-0.415-2.824-0.64-4.33-0.64c-0.275,0-0.547,0.011-0.818,0.025
				c-0.967,0.062-1.898,0.212-2.789,0.443c1.576,0.681,3.889,1.958,6.225,4.224C23.606,8.618,24.037,8.416,24.52,8.352z"/>
			<path d="M18.783,28.131c-0.502-0.343-0.867-0.867-1.006-1.48c-2.85-0.795-5.238-2.277-7.164-3.894
				C10.277,22.932,9.9,23.04,9.494,23.04c-0.277,0-0.539-0.056-0.787-0.142c-0.855,1.39-1.289,2.457-1.465,2.944
				c0.697,1.435,1.615,2.739,2.707,3.876c1.658,1.689,3.705,2.996,6.004,3.754C16.444,32.602,17.559,30.581,18.783,28.131z"/>
			<path d="M9.494,18.13c0.357,0,0.693,0.08,1,0.216c1.381-1.484,3.143-3.048,5.404-4.55c2.156-1.435,4.381-2.373,6.498-2.986
				c0-0.012-0.002-0.024-0.002-0.037c0-0.241,0.045-0.47,0.109-0.69c-3.279-3.24-6.553-4.419-7.492-4.707
				c-4.438,1.872-7.617,5.797-8.779,10.204c0.318,0.528,1.012,1.603,2.059,2.877C8.649,18.254,9.055,18.13,9.494,18.13z"/>
			<path d="M7.039,20.585c0-0.417,0.115-0.803,0.297-1.146c-0.594-0.722-1.09-1.389-1.477-1.95
				c-0.074,0.595-0.117,1.193-0.117,1.792c0,1.676,0.277,3.288,0.783,4.793c0.258-0.553,0.613-1.215,1.068-1.954
				C7.252,21.699,7.039,21.168,7.039,20.585z"/>
			<path d="M27.137,9.904c2.188-0.219,4.027-0.15,5.207-0.042c-1.596-1.989-3.686-3.563-6.08-4.537
				c-0.09,0.712-0.232,1.832-0.418,3.209C26.439,8.799,26.904,9.293,27.137,9.904z"/>
			<path d="M25.174,13.271c-0.164,1.101-0.342,2.242-0.531,3.381c-0.359,2.196-1.42,5.047-2.646,7.829
				c0.363,0.412,0.592,0.94,0.615,1.528c1.755,0.113,3.333,0.097,4.732-0.001c0.131-0.791,0.639-1.447,1.332-1.791
				c-0.057-2.853-0.629-6.066-2.334-9.086C25.967,14.468,25.576,13.852,25.174,13.271z"/>
			<path d="M33.391,11.341c-0.547-0.084-2.955-0.402-6.137-0.079c-0.115,0.567-0.432,1.055-0.865,1.407
				c0.385,0.566,0.76,1.163,1.121,1.802c1.803,3.194,2.445,6.541,2.535,9.513c0.834,0.098,1.537,0.608,1.898,1.328
				c1.432-0.348,2.373-0.717,2.768-0.893c0.598-1.619,0.928-3.369,0.928-5.193C35.639,16.336,34.814,13.634,33.391,11.341z"/>
			<path d="M29.758,28.865c-0.008,0-0.018-0.002-0.025-0.002c-0.166,1.056-0.367,1.97-0.555,2.687
				c1.99-1.383,3.629-3.235,4.76-5.396c-0.477,0.16-1.064,0.33-1.748,0.494C32.068,27.891,31.031,28.865,29.758,28.865z"/>
			<path d="M27.494,27.355c-0.767,0.056-1.578,0.09-2.449,0.09c-0.869,0-1.797-0.039-2.77-0.108
				c-0.424,0.728-1.207,1.222-2.109,1.222c-0.029,0-0.057-0.009-0.084-0.01c-1.154,2.316-2.223,4.27-2.797,5.295
				c1.08,0.248,2.201,0.383,3.354,0.383c2.463,0,4.785-0.6,6.836-1.654c0.186-0.562,0.637-2.071,0.936-4.112
				C28.004,28.191,27.682,27.811,27.494,27.355z"/>
			<path d="M20.844,23.754c1.156-2.638,2.145-5.301,2.477-7.319c0.191-1.155,0.369-2.308,0.535-3.419
				c-0.436-0.194-0.803-0.51-1.061-0.904c-2.018,0.573-4.129,1.455-6.154,2.801c-2.129,1.415-3.803,2.895-5.109,4.3
				c0.264,0.391,0.42,0.864,0.42,1.372c0,0.445-0.129,0.856-0.336,1.217c1.717,1.425,3.811,2.71,6.254,3.453
				c0.348-0.935,1.24-1.606,2.297-1.606C20.403,23.648,20.627,23.691,20.844,23.754z"/>
		</g>
	</g>
</g>
<g>
</g>
<g>
</g>
<g>
</g>
<g>
</g>
<g>
</g>
<g>
</g>
<g>
</g>
<g>
</g>
<g>
</g>
<g>
</g>
<g>
</g>
<g>
</g>
<g>
</g>
<g>
</g>
<g>
</g>
</svg>
