<?xml version="1.0" encoding="iso-8859-1"?>
<!-- Generator: Adobe Illustrator 18.0.0, SVG Export Plug-In . SVG Version: 6.00 Build 0)  -->
<!DOCTYPE svg PUBLIC "-//W3C//DTD SVG 1.1//EN" "http://www.w3.org/Graphics/SVG/1.1/DTD/svg11.dtd">
<svg version="1.1" id="Capa_1" xmlns="http://www.w3.org/2000/svg" xmlns:xlink="http://www.w3.org/1999/xlink" x="0px" y="0px"
	 viewBox="0 0 72.959 72.959" style="enable-background:new 0 0 72.959 72.959;" xml:space="preserve">
<path style="fill:#231F20;" d="M6.167,34.774H29v4.333c0,0.552,0.448,1,1,1h12.958c0.552,0,1-0.448,1-1v-4.333h21.875
	c0.552,0,1-0.448,1-1V1.482c0-0.552-0.448-1-1-1H6.167c-0.552,0-1,0.448-1,1v32.292C5.167,34.326,5.614,34.774,6.167,34.774z
	 M41.958,38.107H31v-3.333h10.958V38.107z M42.958,32.774H30H7.167V28.94h57.667v3.833H42.958z M64.833,2.482V26.94H7.167V2.482
	H64.833z M13.583,15.482c0-4.533,3.675-8.208,8.208-8.208v8.208H30c0,4.533-3.675,8.208-8.208,8.208
	C17.258,23.69,13.583,20.015,13.583,15.482z M41.958,23.69v-6.625c0-0.552,0.448-1,1-1s1,0.448,1,1v6.625c0,0.552-0.448,1-1,1
	S41.958,24.242,41.958,23.69z M45.083,23.69v-9.125c0-0.552,0.448-1,1-1s1,0.448,1,1v9.125c0,0.552-0.448,1-1,1
	S45.083,24.242,45.083,23.69z M48.208,23.69V10.94c0-0.552,0.448-1,1-1s1,0.448,1,1v12.75c0,0.552-0.448,1-1,1
	S48.208,24.242,48.208,23.69z M51.333,23.69V10.315c0-0.552,0.448-1,1-1s1,0.448,1,1V23.69c0,0.552-0.448,1-1,1
	S51.333,24.242,51.333,23.69z M54.458,23.69v-17c0-0.552,0.448-1,1-1s1,0.448,1,1v17c0,0.552-0.448,1-1,1
	S54.458,24.242,54.458,23.69z M72.896,58.655l-6.083-16.374c-0.146-0.392-0.52-0.652-0.938-0.652H7.083
	c-0.418,0-0.792,0.26-0.938,0.652L0.063,58.655C0.021,58.766,0,58.884,0,59.003v6.344c0,0.552,0.448,1,1,1h1.439
	c-1.003,2.615-1.826,4.723-1.842,4.766c-0.201,0.515,0.053,1.094,0.568,1.295c0.517,0.201,1.095-0.054,1.295-0.568
	c0.034-0.088,3.439-8.812,4.898-12.941c1.332-4.265,5.608-5.082,8.216-4.304c0.76,0.227,3.184,1.168,2.469,3.678
	c-1.434,4.118-4.137,12.82-4.164,12.907c-0.164,0.527,0.131,1.088,0.659,1.251c0.099,0.031,0.198,0.045,0.297,0.045
	c0.426,0,0.821-0.275,0.955-0.704c0.014-0.046,0.78-2.509,1.709-5.426h37.965c0.928,2.912,1.694,5.38,1.708,5.426
	c0.133,0.429,0.528,0.704,0.955,0.704c0.098,0,0.198-0.015,0.297-0.045c0.527-0.164,0.822-0.724,0.659-1.251
	c-0.027-0.087-2.729-8.789-4.146-12.854c-0.732-2.563,1.691-3.504,2.452-3.731c2.609-0.78,6.884,0.04,8.228,4.339
	c1.447,4.093,4.852,12.818,4.886,12.906c0.201,0.514,0.778,0.767,1.295,0.568c0.515-0.201,0.769-0.781,0.568-1.295
	c-0.017-0.043-0.841-2.154-1.843-4.766h1.439c0.552,0,1-0.448,1-1v-6.344C72.959,58.884,72.938,58.766,72.896,58.655z M2,64.346
	v-4.344h2.832c-0.487,1.324-1.062,2.851-1.63,4.344H2z M16.146,52.679c-1.69-0.506-3.569-0.478-5.298,0.088l1.907-4.691
	c0.006-0.012,0.625-1.219,3.703-1.219c2.947,0,4.101,0.329,4.103,0.329c0.037,0.011,0.088,0.023,0.126,0.031
	c0.006,0.001,0.588,0.118,0.839,0.569c0.274,0.493,0.083,1.245-0.126,1.789c-0.198,0.516,0.06,1.094,0.575,1.292
	c0.515,0.197,1.094-0.06,1.292-0.575c0.179-0.468,0.275-0.903,0.333-1.323c0.946,0.073,1.258,0.279,1.341,0.379
	c0.29,0.353,0.038,1.594-0.229,2.908l-0.177,0.885c-0.423,2.179-3.739,2.123-4.996,2.02C18.88,54.036,17.719,53.149,16.146,52.679z
	 M54.821,64.346H18.137c0.493-1.53,0.991-3.056,1.426-4.344h33.832C53.827,61.282,54.327,62.811,54.821,64.346z M56.813,52.679
	c-1.569,0.469-2.727,1.351-3.384,2.478c-1.25,0.096-4.584,0.144-5.003-2.016l-0.177-0.886c-0.267-1.313-0.519-2.554-0.229-2.907
	c0.082-0.1,0.383-0.291,1.341-0.37c0.058,0.417,0.154,0.849,0.332,1.314c0.198,0.515,0.774,0.772,1.292,0.575
	c0.516-0.198,0.773-0.776,0.575-1.292c-0.209-0.544-0.4-1.296-0.126-1.789c0.25-0.449,0.828-0.567,0.827-0.567
	c0.041-0.006,0.09-0.018,0.129-0.03c0.011-0.003,1.165-0.332,4.112-0.332c3.079,0,3.697,1.207,3.699,1.21l1.912,4.704
	C60.382,52.201,58.503,52.173,56.813,52.679z M64.901,54.322l-2.837-6.976c-0.093-0.254-1.043-2.489-5.564-2.489
	c-2.971,0-4.313,0.313-4.635,0.401c-0.327,0.067-1.507,0.382-2.16,1.52c-0.032,0.056-0.044,0.12-0.072,0.177
	c-1.571,0.068-2.566,0.399-3.16,1.123c-0.894,1.088-0.596,2.55-0.185,4.574l0.174,0.869c0.564,2.908,3.541,3.693,6.012,3.693
	c0.126,0,0.243-0.01,0.366-0.014c-0.013,0.263-0.017,0.528,0.014,0.802H20.11c0.031-0.273,0.031-0.538,0.018-0.801
	c0.12,0.004,0.234,0.014,0.357,0.014c2.471,0,5.447-0.785,6.012-3.693l0.174-0.868c0.412-2.024,0.709-3.487-0.185-4.575
	c-0.595-0.725-1.563-1.053-3.16-1.123c-0.028-0.058-0.04-0.122-0.072-0.178c-0.653-1.138-1.833-1.453-2.16-1.52
	c-0.322-0.089-1.664-0.401-4.635-0.401c-4.521,0-5.471,2.235-5.551,2.457L8.063,54.31c-1.085,0.911-1.967,2.139-2.505,3.693h-3.12
	l5.34-14.374H65.18l5.341,14.374h-3.121C66.857,56.455,65.979,55.231,64.901,54.322z M69.755,64.346
	c-0.569-1.495-1.145-3.024-1.63-4.344h2.834v4.344H69.755z"/>
<g>
</g>
<g>
</g>
<g>
</g>
<g>
</g>
<g>
</g>
<g>
</g>
<g>
</g>
<g>
</g>
<g>
</g>
<g>
</g>
<g>
</g>
<g>
</g>
<g>
</g>
<g>
</g>
<g>
</g>
</svg>
